<svg viewBox="0 0 1200 720" xmlns="http://www.w3.org/2000/svg" font-family="Inter, -apple-system, sans-serif">
  <rect width="1200" height="720" fill="#FAF7F2"/>
  <!-- top bar -->
  <rect width="1200" height="64" fill="#0F3D3E"/>
  <text x="32" y="40" fill="#FFFFFF" font-size="22" font-weight="700" font-family="Fraunces, Georgia, serif">RentaPay</text>
  <text x="150" y="40" fill="#E8A574" font-size="13" font-weight="600" letter-spacing="1">LANDLORD</text>
  <circle cx="1140" cy="32" r="16" fill="#1A5C5D"/>
  <text x="1140" y="37" fill="#fff" font-size="13" text-anchor="middle">JM</text>

  <!-- page title -->
  <text x="32" y="108" fill="#1B2421" font-size="26" font-weight="700" font-family="Fraunces, Georgia, serif">Good morning, James</text>
  <text x="32" y="134" fill="#5C6663" font-size="14">Sunrise Apartments &amp; 2 other properties</text>

  <!-- summary cards -->
  <g>
    <rect x="32" y="160" width="270" height="110" rx="10" fill="#FFFFFF" stroke="#DCD5C8"/>
    <text x="52" y="192" fill="#5C6663" font-size="13">Collected this month</text>
    <text x="52" y="228" fill="#0F3D3E" font-size="28" font-weight="700">KES 412,000</text>
    <text x="52" y="252" fill="#2E7D32" font-size="12">+8% vs last month</text>
  </g>
  <g>
    <rect x="318" y="160" width="270" height="110" rx="10" fill="#FFFFFF" stroke="#DCD5C8"/>
    <text x="338" y="192" fill="#5C6663" font-size="13">Pending</text>
    <text x="338" y="228" fill="#B8860B" font-size="28" font-weight="700">KES 38,500</text>
    <text x="338" y="252" fill="#5C6663" font-size="12">3 tenants</text>
  </g>
  <g>
    <rect x="604" y="160" width="270" height="110" rx="10" fill="#FFFFFF" stroke="#DCD5C8"/>
    <text x="624" y="192" fill="#5C6663" font-size="13">Overdue</text>
    <text x="624" y="228" fill="#B3261E" font-size="28" font-weight="700">KES 12,000</text>
    <text x="624" y="252" fill="#5C6663" font-size="12">1 tenant</text>
  </g>
  <g>
    <rect x="890" y="160" width="278" height="110" rx="10" fill="#0F3D3E"/>
    <text x="910" y="192" fill="#E8A574" font-size="13">Next payout</text>
    <text x="910" y="228" fill="#FFFFFF" font-size="28" font-weight="700">KES 398,620</text>
    <text x="910" y="252" fill="#DCD5C8" font-size="12">Fri, 15 Aug</text>
  </g>

  <!-- properties table -->
  <rect x="32" y="296" width="1136" height="380" rx="10" fill="#FFFFFF" stroke="#DCD5C8"/>
  <text x="56" y="330" fill="#1B2421" font-size="16" font-weight="700">Properties</text>

  <g font-size="13" fill="#5C6663">
    <text x="56" y="364">PROPERTY</text>
    <text x="420" y="364">UNITS</text>
    <text x="560" y="364">TENANT</text>
    <text x="800" y="364">STATUS</text>
    <text x="980" y="364">AMOUNT</text>
  </g>
  <line x1="56" y1="378" x2="1112" y2="378" stroke="#DCD5C8"/>

  <!-- row 1 -->
  <text x="56" y="410" fill="#1B2421" font-size="14" font-weight="600">Sunrise Apartments — A3</text>
  <text x="420" y="410" fill="#1B2421" font-size="14">12</text>
  <text x="560" y="410" fill="#1B2421" font-size="14">Jane Wanjiru</text>
  <rect x="800" y="394" width="60" height="22" rx="11" fill="#EAF4E8"/>
  <text x="812" y="410" fill="#2E7D32" font-size="12" font-weight="600">Paid</text>
  <text x="980" y="410" fill="#1B2421" font-size="14">KES 25,000</text>
  <line x1="56" y1="428" x2="1112" y2="428" stroke="#F3F4F6"/>

  <!-- row 2 -->
  <text x="56" y="460" fill="#1B2421" font-size="14" font-weight="600">Kileleshwa Court — B1</text>
  <text x="420" y="460" fill="#1B2421" font-size="14">8</text>
  <text x="560" y="460" fill="#1B2421" font-size="14">Brian Otieno</text>
  <rect x="800" y="444" width="72" height="22" rx="11" fill="#FFF4E5"/>
  <text x="812" y="460" fill="#B8860B" font-size="12" font-weight="600">Pending</text>
  <text x="980" y="460" fill="#1B2421" font-size="14">KES 18,500</text>
  <line x1="56" y1="478" x2="1112" y2="478" stroke="#F3F4F6"/>

  <!-- row 3 -->
  <text x="56" y="510" fill="#1B2421" font-size="14" font-weight="600">Kileleshwa Court — B4</text>
  <text x="420" y="510" fill="#1B2421" font-size="14">8</text>
  <text x="560" y="510" fill="#1B2421" font-size="14">Grace Achieng</text>
  <rect x="800" y="494" width="68" height="22" rx="11" fill="#FBEAE9"/>
  <text x="812" y="510" fill="#B3261E" font-size="12" font-weight="600">Overdue</text>
  <text x="980" y="510" fill="#1B2421" font-size="14">KES 12,000</text>
  <line x1="56" y1="528" x2="1112" y2="528" stroke="#F3F4F6"/>

  <!-- row 4 -->
  <text x="56" y="560" fill="#1B2421" font-size="14" font-weight="600">Riverside Court — C2</text>
  <text x="420" y="560" fill="#1B2421" font-size="14">6</text>
  <text x="560" y="560" fill="#1B2421" font-size="14">Peter Kimani</text>
  <rect x="800" y="544" width="60" height="22" rx="11" fill="#EAF4E8"/>
  <text x="812" y="560" fill="#2E7D32" font-size="12" font-weight="600">Paid</text>
  <text x="980" y="560" fill="#1B2421" font-size="14">KES 30,000</text>

  <rect x="56" y="612" width="180" height="40" rx="8" fill="#C1622D"/>
  <text x="146" y="637" fill="#fff" font-size="13" font-weight="600" text-anchor="middle">+ Add manager</text>
  <rect x="252" y="612" width="180" height="40" rx="8" fill="#FFFFFF" stroke="#0F3D3E"/>
  <text x="342" y="637" fill="#0F3D3E" font-size="13" font-weight="600" text-anchor="middle">Download report</text>

  <text x="1112" y="708" fill="#B0A996" font-size="11" text-anchor="end">Illustrative preview — fictional data</text>
</svg>
